HIERARCHY
ROOT Pelvis
{
	OFFSET 0.000000 0.000000 0.000000
	CHANNELS 6 Xposition Yposition Zposition Xrotation Yrotation Zrotation
	JOINT LeftUpLeg_virtual
	{
		OFFSET 0.000000 0.000000 0.000000
		CHANNELS 3 Xrotation Yrotation Zrotation
		JOINT LeftUpLeg
		{
			OFFSET 18.735201 -5.666702 -4.541200
			CHANNELS 3 Xrotation Yrotation Zrotation
			JOINT LeftLeg
			{
				OFFSET -0.021200 -31.938179 0.493100
				CHANNELS 3 Xrotation Yrotation Zrotation
				JOINT LeftFoot
				{
					OFFSET 0.021200 -31.938179 -4.336299
					CHANNELS 3 Xrotation Yrotation Zrotation
					JOINT LeftToeBase
					{
						OFFSET 0.943001 -26.722000 15.023500
						CHANNELS 3 Xrotation Yrotation Zrotation
						End Site
						{
							OFFSET 0 0 0
						}
					}
				}
			}
		}
	}
	JOINT RightUpLeg_virtual
	{
		OFFSET 0.000000 0.000000 0.000000
		CHANNELS 3 Xrotation Yrotation Zrotation
		JOINT RightUpLeg
		{
			OFFSET -18.735201 -5.666702 -4.541200
			CHANNELS 3 Xrotation Yrotation Zrotation
			JOINT RightLeg
			{
				OFFSET 0.018946 -31.938133 0.493100
				CHANNELS 3 Xrotation Yrotation Zrotation
				JOINT RightFoot
				{
					OFFSET -0.018946 -31.938126 -4.336299
					CHANNELS 3 Xrotation Yrotation Zrotation
					JOINT RightToeBase
					{
						OFFSET -0.943001 -26.722004 15.023500
						CHANNELS 3 Xrotation Yrotation Zrotation
						End Site
						{
							OFFSET 0 0 0
						}
					}
				}
			}
		}
	}
	JOINT Hips_virtual
	{
		OFFSET 0.000000 0.000000 0.000000
		CHANNELS 3 Xrotation Yrotation Zrotation
		JOINT Hips
		{
			OFFSET -0.000000 -0.000000 -0.000000
			CHANNELS 3 Xrotation Yrotation Zrotation
			JOINT Spine
			{
				OFFSET 0.000000 10.199997 -0.299500
				CHANNELS 3 Xrotation Yrotation Zrotation
				JOINT Spine1
				{
					OFFSET 0.000000 11.900002 -1.516600
					CHANNELS 3 Xrotation Yrotation Zrotation
					JOINT Spine2
					{
						OFFSET 0.000000 13.600006 -2.842500
						CHANNELS 3 Xrotation Yrotation Zrotation
						JOINT Neck_virtual
						{
							OFFSET 0.000000 0.000000 0.000000
							CHANNELS 3 Xrotation Yrotation Zrotation
							JOINT Neck
							{
								OFFSET 0.000000 9.624100 -2.890100
								CHANNELS 3 Xrotation Yrotation Zrotation
								JOINT Head
								{
									OFFSET 0.000000 14.068802 -1.351900
									CHANNELS 3 Xrotation Yrotation Zrotation
									End Site
									{
										OFFSET 0 0 0
									}
								}
							}
						}
						JOINT LeftShoulder_virtual
						{
							OFFSET 0.000000 0.000000 0.000000
							CHANNELS 3 Xrotation Yrotation Zrotation
							JOINT LeftShoulder
							{
								OFFSET 15.263000 10.923401 -0.547700
								CHANNELS 3 Xrotation Yrotation Zrotation
								JOINT LeftArm
								{
									OFFSET 25.438599 -2.830597 -13.032500
									CHANNELS 3 Xrotation Yrotation Zrotation
									JOINT LeftForeArm
									{
										OFFSET 29.960503 0.000000 0.000000
										CHANNELS 3 Xrotation Yrotation Zrotation
										JOINT LeftHand
										{
											OFFSET 27.849251 0.000000 0.000000
											CHANNELS 3 Xrotation Yrotation Zrotation
											End Site
											{
												OFFSET 0 0 0
											}
										}
									}
								}
							}
						}
						JOINT RightShoulder_virtual
						{
							OFFSET 0.000000 0.000000 0.000000
							CHANNELS 3 Xrotation Yrotation Zrotation
							JOINT RightShoulder
							{
								OFFSET -15.263000 10.923401 -0.547700
								CHANNELS 3 Xrotation Yrotation Zrotation
								JOINT RightArm
								{
									OFFSET -25.438599 -2.830597 -13.032500
									CHANNELS 3 Xrotation Yrotation Zrotation
									JOINT RightForeArm
									{
										OFFSET -29.960503 0.000000 0.000000
										CHANNELS 3 Xrotation Yrotation Zrotation
										JOINT RightHand
										{
											OFFSET -27.849251 0.000000 0.000000
											CHANNELS 3 Xrotation Yrotation Zrotation
											End Site
											{
												OFFSET 0 0 0
											}
										}
									}
								}
							}
						}
					}
				}
			}
		}
	}
}
MOTION
Frames: 11
Frame Time: 0.03333333
12.520916 25.241055 401.124298 0.000000 0.000000 0.000000 56.399877 -66.167635 88.038338 -46.122799 -27.600221 54.455814 53.607412 -8.810788 -8.835290 -0.983525 -4.534506 -25.357894 0.000000 0.000000 0.000000 16.835366 -68.697879 52.701757 -60.613708 -32.238923 3.287186 144.017407 18.578960 -3.133286 39.980540 22.049584 37.321332 0.000000 0.000000 0.000000 -1.573141 -40.965320 8.915555 14.519008 -14.671007 43.831810 24.498068 -13.320939 -0.297643 16.793898 -6.992737 -2.030519 0.000000 0.000000 0.000000 15.019658 -6.319023 -2.820521 5.475058 -0.785027 -0.536442 0.000000 0.000000 0.000000 17.908112 -7.619330 -2.883405 3.503318 -19.050994 -17.981609 29.676373 -11.291874 -64.891203 16.861393 -19.512788 -11.743076 0.000000 0.000000 0.000000 19.960468 -1.980028 2.224513 11.886678 -0.139478 3.252890 -51.041966 -23.412106 -6.902827 -19.430425 43.755230 4.508568 0.000000 0.000000 0.000000 
12.851952 25.863670 406.382233 0.000000 0.000000 0.000000 57.414065 -65.754231 88.793914 -46.242945 -27.275957 54.641326 56.325421 -9.851260 -9.632176 0.747009 -5.236189 -27.346380 0.000000 0.000000 0.000000 18.068987 -69.825796 49.790177 -58.430479 -31.399227 0.843074 144.739891 20.736753 -3.446842 38.723368 23.836677 40.606687 0.000000 0.000000 0.000000 -0.933686 -40.396239 8.345820 17.624371 -15.538105 41.584316 24.324319 -11.327266 -0.642409 16.426728 -5.879725 -2.004382 0.000000 0.000000 0.000000 13.978384 -5.127712 -2.586652 4.966710 -0.280407 -0.353281 0.000000 0.000000 0.000000 17.418565 -6.698523 -3.093462 3.557241 -16.289935 -18.718256 29.686137 -10.924312 -64.750897 16.739479 -20.275831 -11.162255 0.000000 0.000000 0.000000 18.932910 -1.171064 1.874028 10.844220 2.704029 2.945364 -55.343517 -23.930847 -6.018712 -21.502409 42.245898 5.332943 0.000000 0.000000 0.000000 
13.320784 26.581738 411.419769 0.000000 0.000000 0.000000 59.441333 -65.919160 90.670167 -46.985165 -27.261713 54.441450 59.351953 -10.605232 -9.801963 2.898837 -6.069602 -28.343584 0.000000 0.000000 0.000000 18.871495 -70.921843 46.110949 -55.840311 -30.525082 -1.845867 143.914832 22.581463 -3.365753 36.647414 24.679649 43.451932 0.000000 0.000000 0.000000 -0.722121 -39.686855 7.811889 19.233680 -16.255908 39.883418 24.047260 -9.384760 -1.193434 16.003652 -4.793359 -2.111744 0.000000 0.000000 0.000000 13.236550 -3.907307 -2.493847 4.580521 0.263624 -0.267976 0.000000 0.000000 0.000000 16.914952 -5.793613 -3.361942 3.627862 -13.479371 -19.674647 30.007576 -10.438306 -64.790047 16.656830 -20.639496 -10.711489 0.000000 0.000000 0.000000 17.653013 -0.475104 1.458904 9.563637 5.022675 2.385533 -58.774700 -24.883445 -4.399754 -23.646842 41.452415 6.553351 0.000000 0.000000 0.000000 
13.867380 27.211731 415.975983 0.000000 0.000000 0.000000 60.733154 -66.621979 91.912695 -48.623543 -27.276840 53.531126 62.401722 -11.048728 -9.462638 5.193975 -6.912552 -28.442151 0.000000 0.000000 0.000000 19.773517 -71.659654 42.182760 -52.505881 -29.646983 -4.651251 142.598313 24.510332 -3.287496 34.023460 25.270535 46.266253 0.000000 0.000000 0.000000 -1.045824 -38.880343 7.129310 18.880810 -17.201666 37.829945 23.450999 -7.534819 -1.979034 15.415261 -3.759072 -2.367991 0.000000 0.000000 0.000000 12.579666 -2.818295 -2.564116 4.223458 0.757444 -0.284431 0.000000 0.000000 0.000000 16.459233 -4.869773 -3.602736 3.864866 -10.510199 -20.417990 31.159866 -9.764800 -64.628070 16.864138 -20.240306 -10.233825 0.000000 0.000000 0.000000 16.061620 0.016564 1.099587 7.994974 6.423774 2.107359 -60.463498 -26.312402 -2.076347 -25.424116 41.436565 7.998736 0.000000 0.000000 0.000000 
13.977739 27.657356 419.945190 0.000000 0.000000 0.000000 61.232830 -68.409365 92.875014 -51.856606 -27.571126 51.578563 65.048816 -11.415376 -8.897384 7.113286 -7.749504 -28.125054 0.000000 0.000000 0.000000 20.719355 -72.468587 38.166636 -48.828435 -28.906662 -7.662379 140.650534 26.094021 -2.729492 31.479843 25.153992 48.666375 0.000000 0.000000 0.000000 -1.448223 -38.293541 6.389453 18.149341 -18.143165 34.842946 22.786464 -5.901744 -2.802305 14.789964 -2.846168 -2.676539 0.000000 0.000000 0.000000 11.886366 -1.939469 -2.654654 3.834559 1.157088 -0.324447 0.000000 0.000000 0.000000 16.038088 -3.993751 -3.829976 4.202431 -7.533789 -21.025204 32.774137 -8.646265 -64.148624 17.084801 -18.904782 -9.726197 0.000000 0.000000 0.000000 14.552305 0.352612 0.829727 6.540895 7.217533 2.179026 -59.957668 -28.255241 1.310519 -26.670127 42.180393 9.753475 0.000000 0.000000 0.000000 
13.950064 28.495377 423.840363 0.000000 0.000000 0.000000 59.141269 -70.174798 90.865647 -55.038241 -27.247853 49.215973 67.547887 -11.584643 -8.303845 9.037302 -8.431396 -27.617631 0.000000 0.000000 0.000000 21.441091 -72.792167 34.092602 -44.698483 -28.305663 -10.456898 138.363718 27.594946 -2.073324 28.740531 24.717463 50.798255 0.000000 0.000000 0.000000 -1.591439 -37.803642 5.818718 17.310776 -18.681699 31.366988 21.930438 -4.548217 -3.505886 14.075444 -2.096236 -2.947318 0.000000 0.000000 0.000000 11.038669 -1.336738 -2.696696 3.352850 1.424534 -0.353462 0.000000 0.000000 0.000000 15.579771 -3.289290 -3.905301 4.486778 -5.037051 -21.055252 34.267346 -7.123897 -62.909512 17.167283 -17.390203 -8.872440 0.000000 0.000000 0.000000 13.467330 0.541932 0.553522 5.619033 7.546767 2.048928 -56.587465 -30.355389 6.258138 -27.331745 44.169266 11.973112 0.000000 0.000000 0.000000 
13.752171 28.883129 427.366974 0.000000 0.000000 0.000000 50.728396 -71.412578 82.606671 -58.140694 -26.241703 46.704584 69.448872 -11.168876 -7.681250 10.724846 -8.542003 -26.532491 0.000000 0.000000 0.000000 22.157318 -72.764901 30.213591 -40.198013 -27.898367 -13.009729 135.663772 29.020818 -1.271977 25.931544 24.043651 52.689357 0.000000 0.000000 0.000000 -1.610426 -37.407099 5.359430 16.244246 -19.361378 28.083117 20.998464 -3.549224 -4.119978 13.328630 -1.546799 -3.196413 0.000000 0.000000 0.000000 10.260102 -1.006911 -2.697109 2.899275 1.559400 -0.375282 0.000000 0.000000 0.000000 15.082082 -2.772279 -3.810689 4.666445 -3.163034 -20.397001 35.509498 -5.387876 -60.809174 17.110406 -16.015754 -7.631029 0.000000 0.000000 0.000000 12.729017 0.540908 0.267870 5.150212 7.205693 1.714033 -50.230335 -32.426999 12.727720 -27.172311 46.709345 14.328873 0.000000 0.000000 0.000000 
13.466724 29.261776 430.456787 0.000000 0.000000 0.000000 39.054653 -71.665548 71.395530 -60.991902 -25.057013 44.556572 71.144036 -10.420098 -6.878860 12.296671 -8.376436 -24.856380 0.000000 0.000000 0.000000 21.970876 -72.117030 26.235296 -36.049394 -27.529279 -14.999317 132.406455 30.755157 -0.336138 22.603649 23.215422 54.778073 0.000000 0.000000 0.000000 -1.472221 -36.680862 4.949398 15.235818 -18.935608 24.380280 20.027506 -2.753078 -4.606065 12.570886 -1.115598 -3.392974 0.000000 0.000000 0.000000 9.586585 -0.871198 -2.632621 2.486908 1.602561 -0.367325 0.000000 0.000000 0.000000 14.507105 -2.425814 -3.593911 4.682967 -1.928451 -19.197905 35.815866 -3.396874 -58.139048 16.638459 -15.004344 -6.185500 0.000000 0.000000 0.000000 12.251899 0.491086 0.020551 4.996843 6.703080 1.403205 -41.384024 -33.272942 20.832393 -26.670401 50.393443 17.130152 0.000000 0.000000 0.000000 
12.778612 30.303761 432.180878 0.000000 0.000000 0.000000 26.108765 -70.761818 59.319121 -63.703378 -23.870826 42.744987 72.624145 -9.459710 -5.997304 13.616154 -7.964848 -22.815169 0.000000 0.000000 0.000000 21.657189 -71.192359 22.753647 -32.220885 -27.257084 -16.525660 128.531278 32.648335 0.895342 18.930281 22.066784 56.859477 0.000000 0.000000 0.000000 -0.938695 -36.150620 4.756353 15.252661 -18.498164 21.329397 19.110518 -2.172165 -5.006032 11.857284 -0.808976 -3.553714 0.000000 0.000000 0.000000 9.032355 -0.832749 -2.599284 2.134862 1.629078 -0.378901 0.000000 0.000000 0.000000 13.842836 -2.234162 -3.323677 4.531090 -1.195550 -17.748337 34.340050 -0.862000 -55.463609 15.456231 -14.337144 -4.809860 0.000000 0.000000 0.000000 11.932065 0.376645 -0.191422 5.048206 6.039405 1.106031 -31.586449 -32.629388 29.604499 -26.515761 54.838093 20.566369 0.000000 0.000000 0.000000 
12.073536 31.770901 433.325562 0.000000 0.000000 0.000000 11.133435 -69.920810 44.122353 -66.860708 -22.172590 39.329715 73.922543 -8.273812 -5.085857 14.657352 -7.263814 -20.472225 0.000000 0.000000 0.000000 21.234850 -69.842502 19.616445 -28.617277 -26.960270 -17.658985 123.901230 34.865295 2.500641 14.841844 20.654997 59.072817 0.000000 0.000000 0.000000 -0.352344 -35.629620 4.652443 15.347768 -17.977613 18.881681 18.321511 -1.844490 -5.349819 11.219174 -0.639761 -3.695549 0.000000 0.000000 0.000000 8.596751 -0.845964 -2.525000 1.841776 1.654766 -0.369387 0.000000 0.000000 0.000000 13.144453 -2.176186 -3.078269 4.267466 -0.869898 -16.317018 31.605771 1.700987 -53.009173 13.878189 -14.024106 -3.670280 0.000000 0.000000 0.000000 11.710799 0.248450 -0.329408 5.208401 5.417488 1.064898 -21.681274 -30.291691 38.172377 -27.004312 59.825545 24.737613 0.000000 0.000000 0.000000 
11.424904 33.717579 434.524658 0.000000 0.000000 0.000000 0.269813 -67.806355 31.141189 -68.435613 -19.691172 35.948296 74.948410 -7.135914 -4.252716 15.224973 -6.491560 -18.239786 0.000000 0.000000 0.000000 21.308630 -67.555694 17.066017 -24.574023 -26.550035 -18.271263 119.076794 37.371342 4.288646 10.856907 19.385088 61.424499 0.000000 0.000000 0.000000 0.408477 -35.054238 4.649930 16.097622 -17.370471 17.159013 18.018536 -1.808229 -5.525954 10.869473 -0.628978 -3.759319 0.000000 0.000000 0.000000 8.169497 -0.901231 -2.423122 1.561513 1.664403 -0.340134 0.000000 0.000000 0.000000 12.367285 -2.234484 -2.807475 3.859614 -0.987480 -14.720193 27.049540 4.756278 -50.380804 11.685083 -13.837308 -2.641746 0.000000 0.000000 0.000000 11.496573 0.142050 -0.457676 5.387308 4.927583 0.978960 -12.863984 -25.679172 45.141301 -29.186959 66.059479 30.329605 0.000000 0.000000 0.000000 
